<svg xmlns="http://www.w3.org/2000/svg" xmlns:xlink="http://www.w3.org/1999/xlink" width="200" height="22.184" viewBox="0 0 200 22.184">
  <defs>
    <clipPath id="clip-path">
      <rect id="Rectangle_9" data-name="Rectangle 9" width="200" height="22.184" transform="translate(0 0)" fill="#fff"/>
    </clipPath>
  </defs>
  <g id="Group_44810" data-name="Group 44810" transform="translate(-77 -18.908)">
    <g id="L" transform="translate(0 -10)">
      <rect id="Rectangle_330" data-name="Rectangle 330" width="10.64" height="2.235" transform="translate(210.802 48.567)" fill="#fff"/>
    </g>
    <g id="Catalyst_logo" data-name="Catalyst logo" transform="translate(77 18.908)" clip-path="url(#clip-path)">
      <path id="Path_7" data-name="Path 7" d="M173.241,9.923c4.775,1.041,6.982,2.785,6.982,6.092,0,3.706-3.069,6.094-7.317,6.094a12.546,12.546,0,0,1-8.757-3.429l1.5-1.775A10.2,10.2,0,0,0,173,19.936c2.877,0,4.777-1.5,4.777-3.675,0-2.02-1.072-3.154-5.573-4.1-4.931-1.072-7.194-2.665-7.194-6.215,0-3.43,2.969-5.88,7.04-5.88A11.189,11.189,0,0,1,179.58,2.7l-1.417,1.867a9.411,9.411,0,0,0-6.186-2.327c-2.785,0-4.563,1.532-4.563,3.491,0,2.051,1.1,3.184,5.818,4.194" fill="#fff"/>
      <path id="Path_8" data-name="Path 8" d="M133.381,18.213h0V.369h-2.417V21.8h2.417Z" fill="#fff"/>
      <path id="Path_9" data-name="Path 9" d="M154.732,12.3,162.774.64h-2.817L153.384,10.3Z" fill="#fff"/>
      <path id="Path_10" data-name="Path 10" d="M152.669,11.087h0L145.444.371H142.5l8.91,12.951V21.8h2.45V12.85Z" fill="#fff"/>
      <path id="Path_11" data-name="Path 11" d="M116.97.217H114.7L104.937,21.8h2.481l2.542-5.665.944-2.174,4.9-10.93,4.867,10.93h-8.345l-.944,2.174H121.62l2.512,5.665h2.6Z" fill="#fff"/>
      <rect id="Rectangle_5" data-name="Rectangle 5" width="2.45" height="17.775" transform="translate(96.244 4.027)" fill="#fff"/>
      <rect id="Rectangle_6" data-name="Rectangle 6" width="16.841" height="2.235" transform="translate(89.04 0.787)" fill="#fff"/>
      <rect id="Rectangle_7" data-name="Rectangle 7" width="2.45" height="17.775" transform="translate(190.356 4.027)" fill="#fff"/>
      <rect id="Rectangle_8" data-name="Rectangle 8" width="16.838" height="2.235" transform="translate(183.162 0.787)" fill="#fff"/>
      <path id="Path_12" data-name="Path 12" d="M57.24,22.171A10.7,10.7,0,0,1,46.488,11.53c0-.137,0-.273.006-.41A10.786,10.786,0,0,1,56.947.01c.128,0,.257,0,.385,0A11.15,11.15,0,0,1,65.69,3.4L64.038,5.179A9.321,9.321,0,0,0,57.3,2.24a8.393,8.393,0,0,0-8.307,8.48c0,.112.005.225.01.338a8.466,8.466,0,0,0,8.037,8.871c.087,0,.173.007.26.009a9.306,9.306,0,0,0,6.92-3.092l1.591,1.56a11.159,11.159,0,0,1-8.573,3.776" fill="#fff"/>
      <path id="Path_13" data-name="Path 13" d="M80.231.217H77.965L68.2,21.8h2.481l2.54-5.665.944-2.174,4.9-10.93,4.869,10.93H75.584l-.944,2.174H84.881L87.393,21.8h2.6Z" fill="#fff"/>
      <path id="Path_14" data-name="Path 14" d="M11.552,7.8a4.472,4.472,0,0,0-.98-1.481A4.139,4.139,0,0,0,6.351,5.3,4.372,4.372,0,0,0,3.5,8.825,4.253,4.253,0,0,0,5,12.665l11.944,8.146Z" fill="#fff"/>
      <path id="Path_15" data-name="Path 15" d="M19.2,3.149a4.3,4.3,0,0,0-2.941-3A4.2,4.2,0,0,0,12.018,1.47a4.448,4.448,0,0,0-.678,4.476L16.6,18.562l.321.759L19.3,4.843a5.1,5.1,0,0,0-.1-1.7" fill="#fff"/>
      <path id="Path_16" data-name="Path 16" d="M27.793,5.934a4.728,4.728,0,0,0,.342-1.766A4.327,4.327,0,0,0,25.553.322a4.13,4.13,0,0,0-5.717,4.17l1.589.015c.114.057.348.114.3.285l-.815.48a1.665,1.665,0,0,0-.741,1.6l1.706,10.946.252,1.46Z" fill="#fff"/>
      <path id="Path_17" data-name="Path 17" d="M22.049,20.787l11.459-7.639a5.232,5.232,0,0,0,1.513-1.5,4.444,4.444,0,0,0-.048-4.578A4.2,4.2,0,0,0,31.4,5.116a4.254,4.254,0,0,0-3.658,2.279l-1.829,4.257Z" fill="#fff"/>
      <path id="Path_18" data-name="Path 18" d="M34.112,13.735a4.351,4.351,0,0,0-1.625.672l-11.6,7.777h14.37A4.142,4.142,0,0,0,38.6,19.851a4.466,4.466,0,0,0-.429-4.548,4.2,4.2,0,0,0-4.062-1.562" fill="#fff"/>
      <path id="Path_19" data-name="Path 19" d="M4.918,13.735A4.2,4.2,0,0,0,.859,15.3,4.471,4.471,0,0,0,.43,19.845a4.136,4.136,0,0,0,3.343,2.332H18.139l-.081-.06L6.542,14.4a4.309,4.309,0,0,0-1.625-.671" fill="#fff"/>
    </g>
  </g>
</svg>